# xmcd
#
# Track frame offsets: 
#        150
#        20183
#        49840
#        67640
#        84675
#        104825
#        124798
#        155648
#        176275
#        192190
#
# Disc length: 2801 seconds
#
# Revision: 0
# Processed by: cddbd v1.5.2PL0 Copyright (c) Steve Scherf et al.
# Submitted via: ExactAudioCopy v1.0b3
#
DISCID=850aef0a
DTITLE=Luu Hong - Hoa No Ve Dem
DYEAR=1993
DGENRE=
TTITLE0=Hinh bong cu
TTITLE1=Hoa no ve dem
TTITLE2=Mot lan dang do
TTITLE3=Dang do
TTITLE4=Giay phut chanh long
TTITLE5=Dem khong ngu
TTITLE6=Tu gia tho ngay
TTITLE7=Tuyet tinh
TTITLE8=Tinh mua gio
TTITLE9=Dem gac tro
EXTD=
EXTT0=
EXTT1=
EXTT2=
EXTT3=
EXTT4=
EXTT5=
EXTT6=
EXTT7=
EXTT8=
EXTT9=
PLAYORDER=
